<svg width="122" height="112" viewBox="0 0 122 112" fill="none" xmlns="http://www.w3.org/2000/svg">
<g filter="url(#filter0_d_262_1113)">
<mask id="path-1-outside-1_262_1113" maskUnits="userSpaceOnUse" x="7" y="6" width="103" height="92" fill="black">
<rect fill="white" x="7" y="6" width="103" height="92"/>
<path d="M38.2459 55.0092C36.3199 59.4845 34.4108 64.0216 32.5186 68.6203C30.6264 73.1882 28.7849 77.8796 26.9941 82.6945C29.3593 82.571 31.1333 82.4321 32.3159 82.2778C33.4985 82.1543 33.9885 82.2932 33.7857 82.6945C33.5492 83.2191 33.1944 83.7901 32.7214 84.4074C32.2483 85.0247 31.4881 85.5494 30.4406 85.9815C30.1365 86.1358 29.4607 86.2747 28.4132 86.3982C27.3996 86.5216 26.1832 86.6296 24.764 86.7222C23.3787 86.8457 21.892 86.9537 20.3039 87.0463C18.7496 87.1389 17.2629 87.216 15.8437 87.2778C14.4584 87.3395 13.2589 87.3858 12.2452 87.4167C11.1977 87.4475 10.522 87.4784 10.2179 87.5093C9.23797 87.6019 8.8494 87.4012 9.05213 86.9074C9.25487 86.4136 9.94754 85.7654 11.1302 84.963C11.3329 84.7778 11.7721 84.5154 12.4479 84.1759C13.0899 83.8364 14.1712 83.5278 15.6917 83.25C16.2323 82.0463 17.0263 80.2716 18.0738 77.9259C19.155 75.5494 20.3715 72.8333 21.723 69.7777C23.1084 66.6913 24.612 63.3734 26.2339 59.824C27.8557 56.2438 29.4945 52.6327 31.1502 48.9907C32.8058 45.3487 34.4277 41.7839 36.0158 38.2963C37.6377 34.8086 39.1244 31.6142 40.4759 28.713C41.8613 25.7809 43.0608 23.25 44.0745 21.1204C45.1219 18.9907 45.8991 17.4784 46.4059 16.5833C46.71 16.213 47.352 15.8735 48.3319 15.5648C49.3118 15.2562 50.3592 15.0247 51.4743 14.8704C52.5893 14.6852 53.6199 14.608 54.566 14.6389C55.5459 14.6698 56.1878 14.8241 56.4919 15.1019C56.6609 15.1636 56.644 15.4414 56.4413 15.9352C56.2723 16.429 55.9851 17.0926 55.5796 17.9259C55.1742 18.7284 54.6842 19.6697 54.1098 20.75C53.5692 21.7994 53.0117 22.9414 52.4373 24.1759C50.2072 28.9599 47.9771 33.6821 45.747 38.3426C43.5508 43.003 41.3883 47.7716 39.2595 52.6481C42.875 52.6172 46.1187 52.108 48.9908 51.1203C51.8966 50.1327 54.4477 48.8055 56.644 47.1389C58.8741 45.4722 60.7831 43.5586 62.3712 41.3981C63.9931 39.2376 65.3109 36.9845 66.3245 34.6389C67.3382 32.2623 68.0816 29.8858 68.5546 27.5093C69.0277 25.1018 69.2642 22.8488 69.2642 20.75C69.2642 19.1759 68.9601 17.7407 68.3519 16.4444C67.7775 15.1173 66.9496 13.9907 65.8684 13.0648C64.7872 12.108 63.4863 11.3673 61.9658 10.8426C60.479 10.3179 58.8234 10.0556 56.9988 10.0556C52.9441 10.0556 49.1259 10.7037 45.5443 12C41.9965 13.2963 38.9048 15.1173 36.2692 17.463C33.6337 19.7778 31.5556 22.571 30.0351 25.8426C28.5146 29.1142 27.7544 32.7253 27.7544 36.6759C27.7544 37.2006 27.6192 37.6635 27.3489 38.0648C27.0786 38.466 26.6224 38.6666 25.9804 38.6666C25.5412 38.6666 24.9668 38.5123 24.2572 38.2037C23.5476 37.8641 22.8381 37.4321 22.1285 36.9074C21.4527 36.3518 20.8614 35.7191 20.3546 35.0092C19.8815 34.2685 19.645 33.4969 19.645 32.6944C19.645 30.5031 20.2025 28.358 21.3176 26.2593C22.4664 24.1296 24.0038 22.108 25.9298 20.1944C27.8895 18.2809 30.1703 16.5216 32.772 14.9167C35.3738 13.3117 38.1276 11.9228 41.0335 10.75C43.9731 9.57716 46.9803 8.66667 50.0551 8.01852C53.1637 7.33951 56.1709 7 59.0768 7C62.3881 7 65.3278 7.41666 67.8957 8.25C70.4975 9.05247 72.6769 10.1944 74.434 11.6759C76.2248 13.1574 77.5763 14.9321 78.4886 17C79.4009 19.037 79.8571 21.2747 79.8571 23.713C79.8571 26.9228 79.1137 30.0401 77.627 33.0648C76.1403 36.0895 74.1129 38.8981 71.5449 41.4907C69.0108 44.0833 66.0373 46.3827 62.6246 48.3888C59.212 50.395 55.5796 51.9691 51.7277 53.1111C51.998 56.7839 52.4035 60.3333 52.9441 63.7592C53.4847 67.1851 54.1436 70.4105 54.9208 73.4352C55.6979 76.429 56.5764 79.1759 57.5563 81.6759C58.57 84.1759 59.6681 86.321 60.8507 88.1111C62.0671 89.9013 63.368 91.2901 64.7534 92.2778C66.1387 93.2654 67.6086 93.7593 69.1629 93.7593C70.8185 93.7593 72.2545 93.358 73.4709 92.5556C74.6874 91.7531 75.7348 90.8735 76.6133 89.9167C77.5256 88.9599 78.3028 88.0802 78.9448 87.2778C79.6206 86.4753 80.2288 86.0741 80.7694 86.0741C81.2424 86.0741 81.5296 86.213 81.631 86.4907C81.7662 86.7685 81.8337 87.0463 81.8337 87.3241C81.8337 88.3117 81.5803 89.3766 81.0735 90.5185C80.5667 91.6605 79.7726 92.7099 78.6914 93.6667C77.6101 94.6235 76.2079 95.4105 74.4846 96.0278C72.7952 96.6759 70.7509 97 68.3519 97C65.0068 97 62.0671 96.3982 59.533 95.1945C57.0326 93.9908 54.8363 92.3549 52.9441 90.287C51.0857 88.25 49.4976 85.8426 48.1798 83.0648C46.8959 80.3179 45.8315 77.3858 44.9868 74.2685C44.1421 71.1512 43.4832 67.9413 43.0101 64.6388C42.5371 61.3364 42.1823 58.0956 41.9458 54.9166C41.4389 54.9783 40.9152 55.0092 40.3746 55.0092C39.8677 55.0092 39.3609 55.0092 38.8541 55.0092H38.2459Z"/>
<path d="M85.128 74.7777C85.128 73.358 85.3983 71.8148 85.939 70.1481C86.5134 68.4506 87.2737 66.7222 88.2197 64.9629C89.1658 63.1728 90.2471 61.3672 91.4635 59.5463C92.6799 57.6944 93.9301 55.8888 95.2141 54.1296C95.1465 54.1913 95.0789 54.253 95.0113 54.3148C94.9776 54.3456 94.9438 54.3919 94.91 54.4537C94.8424 54.5154 94.8086 54.5617 94.8086 54.5926C94.268 55.1481 93.5922 55.8426 92.7813 56.6759C91.9703 57.5092 91.0749 58.4506 90.095 59.5C89.1489 60.5185 88.1522 61.6142 87.1047 62.787C86.0573 63.9598 84.9929 65.1481 83.9116 66.3518C82.8642 67.5246 81.8505 68.6975 80.8706 69.8703C79.8907 71.0123 78.9953 72.0771 78.1844 73.0648C76.8666 74.7006 75.8023 76.0123 74.9913 77C74.2142 77.9876 73.5891 78.7438 73.116 79.2685C72.643 79.7932 72.2882 80.1327 72.0517 80.287C71.8152 80.4722 71.5786 80.5648 71.3421 80.5648C71.0718 80.5648 70.717 80.5031 70.2778 80.3796C69.8385 80.2562 69.4161 80.071 69.0107 79.8241C68.6052 79.5463 68.2504 79.2222 67.9463 78.8518C67.6422 78.4815 67.4902 78.0494 67.4902 77.5556C67.4902 77.216 67.5915 76.8611 67.7943 76.4907C69.0107 73.8364 70.2947 71.1821 71.6462 68.5277C72.2206 67.3858 72.8288 66.1975 73.4708 64.9629C74.1128 63.7283 74.7717 62.4938 75.4475 61.2592C76.1571 59.9938 76.8666 58.7592 77.5762 57.5555C78.3195 56.3518 79.046 55.2098 79.7556 54.1296C78.6743 55.1172 77.5255 56.2284 76.3091 57.4629C75.0927 58.6666 73.8763 59.9012 72.6599 61.1666C71.4773 62.4012 70.3453 63.6203 69.2641 64.824C68.1828 66.0277 67.2536 67.108 66.4765 68.0648C64.6519 70.3487 63.1652 72.3704 62.0163 74.1296C60.9013 75.858 59.9552 77.3704 59.1781 78.6667C58.705 79.4383 58.2826 80.0247 57.911 80.4259C57.5055 80.858 56.9311 81.0741 56.1877 81.0741C55.7823 81.0741 55.343 80.9506 54.87 80.7037C54.3631 80.4877 54.1097 80.071 54.1097 79.4537C54.1097 79.0833 54.2955 78.358 54.6672 77.2778C55.0389 76.1667 55.5288 74.8549 56.137 73.3426C56.7115 71.7993 57.3872 70.1172 58.1644 68.2962C58.9077 66.4753 59.6849 64.6389 60.4958 62.787C61.3068 60.9043 62.1008 59.0833 62.878 57.324C63.6551 55.5648 64.3478 53.9907 64.956 52.6018C65.598 51.1821 66.1048 50.0246 66.4765 49.1296C66.882 48.2345 67.1185 47.7253 67.1861 47.6018C67.2536 47.4784 67.4564 47.3858 67.7943 47.324C68.1659 47.2623 68.5883 47.2469 69.0614 47.2777C69.5344 47.3086 70.0243 47.3858 70.5312 47.5092C71.038 47.6327 71.4773 47.8179 71.8489 48.0648C72.8626 48.7438 73.5215 49.3456 73.8256 49.8703C74.0283 50.1481 74.1297 50.3642 74.1297 50.5185C74.1297 50.6419 73.7918 51.1975 73.116 52.1851C72.474 53.1419 71.6462 54.3919 70.6325 55.9351C69.6189 57.4475 68.5038 59.1759 67.2874 61.1203C66.071 63.0648 64.9222 65.0555 63.8409 67.0925C66.071 64.2222 67.9632 61.8456 69.5175 59.9629C71.0718 58.0802 72.3389 56.5679 73.3188 55.4259C74.4676 54.0987 75.3968 53.0648 76.1064 52.324C78.7419 49.2376 80.8368 47.0617 82.3911 45.7963C83.9792 44.5308 85.0267 43.8981 85.5335 43.8981C85.9728 43.8981 86.412 44.0216 86.8513 44.2685C87.3243 44.5154 87.7467 44.8549 88.1184 45.287C88.4901 45.6882 88.7942 46.1666 89.0307 46.7222C89.2672 47.2469 89.3855 47.8179 89.3855 48.4351C89.3855 48.7746 89.3517 49.1296 89.2841 49.5C89.2165 49.8395 89.0814 50.179 88.8786 50.5185C88.2704 51.537 87.5271 52.7716 86.6485 54.2222C85.77 55.6419 84.8408 57.1543 83.861 58.7592C82.9149 60.3642 81.935 62.0154 80.9213 63.7129C79.9076 65.3796 78.9615 66.9537 78.083 68.4351C79.9076 66.0895 81.5802 64.0061 83.1007 62.1851C84.655 60.3642 86.0065 58.821 87.1554 57.5555C88.5069 56.074 89.7065 54.8086 90.7539 53.7592C92.3082 52.216 93.6091 50.9197 94.6565 49.8703C95.7378 48.8209 96.6332 47.9722 97.3428 47.324C98.0524 46.6759 98.6099 46.2129 99.0153 45.9352C99.4546 45.6574 99.8094 45.5185 100.08 45.5185C100.485 45.5185 100.924 45.6728 101.397 45.9814C101.871 46.2592 102.293 46.6142 102.665 47.0463C103.07 47.4784 103.391 47.9722 103.628 48.5277C103.898 49.0524 104.033 49.5617 104.033 50.0555C104.033 50.7037 103.746 51.537 103.171 52.5555C103.532 51.8611 103.628 51.6508 101.397 54.5926C100.553 55.8889 99.3363 58.6821 98.3564 60.1944C97.4103 61.7068 96.5149 63.2962 95.6702 64.9629C94.8255 66.5987 94.1159 68.3117 93.5415 70.1018C93.0009 71.8611 92.7306 73.6203 92.7306 75.3796C92.7306 76.2747 92.8826 77.0463 93.1867 77.6944C93.5246 78.3426 94.0315 78.6667 94.7072 78.6667C95.4168 78.6667 96.2953 78.2191 97.3428 77.3241C98.3902 76.429 99.4884 75.2716 100.637 73.8518C101.82 72.4321 102.986 70.858 104.134 69.1296C105.317 67.3703 106.364 65.6574 107.277 63.9907C107.378 63.8055 107.496 63.6357 107.632 63.4814C107.8 63.3271 107.986 63.25 108.189 63.25C108.392 63.25 108.578 63.3117 108.747 63.4351C108.916 63.5277 109 63.7129 109 63.9907C109 64.1759 108.479 69.5463 108.479 67.0925C103.816 71.5833 107.918 69.3765 106.499 71.537C105.114 73.6666 102.056 75.5339 100.536 77.1389C99.0153 78.7129 97.461 79.963 95.8729 80.8889C94.2849 81.8148 92.7137 82.2778 91.1594 82.2778C90.0781 82.2778 89.1489 82.0772 88.3718 81.6759C87.6284 81.2747 87.0202 80.7346 86.5472 80.0556C86.0741 79.3765 85.7194 78.5895 85.4828 77.6944C85.2463 76.7685 85.128 75.7963 85.128 74.7777Z"/>
</mask>
<path d="M38.2459 55.0092C36.3199 59.4845 34.4108 64.0216 32.5186 68.6203C30.6264 73.1882 28.7849 77.8796 26.9941 82.6945C29.3593 82.571 31.1333 82.4321 32.3159 82.2778C33.4985 82.1543 33.9885 82.2932 33.7857 82.6945C33.5492 83.2191 33.1944 83.7901 32.7214 84.4074C32.2483 85.0247 31.4881 85.5494 30.4406 85.9815C30.1365 86.1358 29.4607 86.2747 28.4132 86.3982C27.3996 86.5216 26.1832 86.6296 24.764 86.7222C23.3787 86.8457 21.892 86.9537 20.3039 87.0463C18.7496 87.1389 17.2629 87.216 15.8437 87.2778C14.4584 87.3395 13.2589 87.3858 12.2452 87.4167C11.1977 87.4475 10.522 87.4784 10.2179 87.5093C9.23797 87.6019 8.8494 87.4012 9.05213 86.9074C9.25487 86.4136 9.94754 85.7654 11.1302 84.963C11.3329 84.7778 11.7721 84.5154 12.4479 84.1759C13.0899 83.8364 14.1712 83.5278 15.6917 83.25C16.2323 82.0463 17.0263 80.2716 18.0738 77.9259C19.155 75.5494 20.3715 72.8333 21.723 69.7777C23.1084 66.6913 24.612 63.3734 26.2339 59.824C27.8557 56.2438 29.4945 52.6327 31.1502 48.9907C32.8058 45.3487 34.4277 41.7839 36.0158 38.2963C37.6377 34.8086 39.1244 31.6142 40.4759 28.713C41.8613 25.7809 43.0608 23.25 44.0745 21.1204C45.1219 18.9907 45.8991 17.4784 46.4059 16.5833C46.71 16.213 47.352 15.8735 48.3319 15.5648C49.3118 15.2562 50.3592 15.0247 51.4743 14.8704C52.5893 14.6852 53.6199 14.608 54.566 14.6389C55.5459 14.6698 56.1878 14.8241 56.4919 15.1019C56.6609 15.1636 56.644 15.4414 56.4413 15.9352C56.2723 16.429 55.9851 17.0926 55.5796 17.9259C55.1742 18.7284 54.6842 19.6697 54.1098 20.75C53.5692 21.7994 53.0117 22.9414 52.4373 24.1759C50.2072 28.9599 47.9771 33.6821 45.747 38.3426C43.5508 43.003 41.3883 47.7716 39.2595 52.6481C42.875 52.6172 46.1187 52.108 48.9908 51.1203C51.8966 50.1327 54.4477 48.8055 56.644 47.1389C58.8741 45.4722 60.7831 43.5586 62.3712 41.3981C63.9931 39.2376 65.3109 36.9845 66.3245 34.6389C67.3382 32.2623 68.0816 29.8858 68.5546 27.5093C69.0277 25.1018 69.2642 22.8488 69.2642 20.75C69.2642 19.1759 68.9601 17.7407 68.3519 16.4444C67.7775 15.1173 66.9496 13.9907 65.8684 13.0648C64.7872 12.108 63.4863 11.3673 61.9658 10.8426C60.479 10.3179 58.8234 10.0556 56.9988 10.0556C52.9441 10.0556 49.1259 10.7037 45.5443 12C41.9965 13.2963 38.9048 15.1173 36.2692 17.463C33.6337 19.7778 31.5556 22.571 30.0351 25.8426C28.5146 29.1142 27.7544 32.7253 27.7544 36.6759C27.7544 37.2006 27.6192 37.6635 27.3489 38.0648C27.0786 38.466 26.6224 38.6666 25.9804 38.6666C25.5412 38.6666 24.9668 38.5123 24.2572 38.2037C23.5476 37.8641 22.8381 37.4321 22.1285 36.9074C21.4527 36.3518 20.8614 35.7191 20.3546 35.0092C19.8815 34.2685 19.645 33.4969 19.645 32.6944C19.645 30.5031 20.2025 28.358 21.3176 26.2593C22.4664 24.1296 24.0038 22.108 25.9298 20.1944C27.8895 18.2809 30.1703 16.5216 32.772 14.9167C35.3738 13.3117 38.1276 11.9228 41.0335 10.75C43.9731 9.57716 46.9803 8.66667 50.0551 8.01852C53.1637 7.33951 56.1709 7 59.0768 7C62.3881 7 65.3278 7.41666 67.8957 8.25C70.4975 9.05247 72.6769 10.1944 74.434 11.6759C76.2248 13.1574 77.5763 14.9321 78.4886 17C79.4009 19.037 79.8571 21.2747 79.8571 23.713C79.8571 26.9228 79.1137 30.0401 77.627 33.0648C76.1403 36.0895 74.1129 38.8981 71.5449 41.4907C69.0108 44.0833 66.0373 46.3827 62.6246 48.3888C59.212 50.395 55.5796 51.9691 51.7277 53.1111C51.998 56.7839 52.4035 60.3333 52.9441 63.7592C53.4847 67.1851 54.1436 70.4105 54.9208 73.4352C55.6979 76.429 56.5764 79.1759 57.5563 81.6759C58.57 84.1759 59.6681 86.321 60.8507 88.1111C62.0671 89.9013 63.368 91.2901 64.7534 92.2778C66.1387 93.2654 67.6086 93.7593 69.1629 93.7593C70.8185 93.7593 72.2545 93.358 73.4709 92.5556C74.6874 91.7531 75.7348 90.8735 76.6133 89.9167C77.5256 88.9599 78.3028 88.0802 78.9448 87.2778C79.6206 86.4753 80.2288 86.0741 80.7694 86.0741C81.2424 86.0741 81.5296 86.213 81.631 86.4907C81.7662 86.7685 81.8337 87.0463 81.8337 87.3241C81.8337 88.3117 81.5803 89.3766 81.0735 90.5185C80.5667 91.6605 79.7726 92.7099 78.6914 93.6667C77.6101 94.6235 76.2079 95.4105 74.4846 96.0278C72.7952 96.6759 70.7509 97 68.3519 97C65.0068 97 62.0671 96.3982 59.533 95.1945C57.0326 93.9908 54.8363 92.3549 52.9441 90.287C51.0857 88.25 49.4976 85.8426 48.1798 83.0648C46.8959 80.3179 45.8315 77.3858 44.9868 74.2685C44.1421 71.1512 43.4832 67.9413 43.0101 64.6388C42.5371 61.3364 42.1823 58.0956 41.9458 54.9166C41.4389 54.9783 40.9152 55.0092 40.3746 55.0092C39.8677 55.0092 39.3609 55.0092 38.8541 55.0092H38.2459Z" fill="#013F7A"/>
<path d="M85.128 74.7777C85.128 73.358 85.3983 71.8148 85.939 70.1481C86.5134 68.4506 87.2737 66.7222 88.2197 64.9629C89.1658 63.1728 90.2471 61.3672 91.4635 59.5463C92.6799 57.6944 93.9301 55.8888 95.2141 54.1296C95.1465 54.1913 95.0789 54.253 95.0113 54.3148C94.9776 54.3456 94.9438 54.3919 94.91 54.4537C94.8424 54.5154 94.8086 54.5617 94.8086 54.5926C94.268 55.1481 93.5922 55.8426 92.7813 56.6759C91.9703 57.5092 91.0749 58.4506 90.095 59.5C89.1489 60.5185 88.1522 61.6142 87.1047 62.787C86.0573 63.9598 84.9929 65.1481 83.9116 66.3518C82.8642 67.5246 81.8505 68.6975 80.8706 69.8703C79.8907 71.0123 78.9953 72.0771 78.1844 73.0648C76.8666 74.7006 75.8023 76.0123 74.9913 77C74.2142 77.9876 73.5891 78.7438 73.116 79.2685C72.643 79.7932 72.2882 80.1327 72.0517 80.287C71.8152 80.4722 71.5786 80.5648 71.3421 80.5648C71.0718 80.5648 70.717 80.5031 70.2778 80.3796C69.8385 80.2562 69.4161 80.071 69.0107 79.8241C68.6052 79.5463 68.2504 79.2222 67.9463 78.8518C67.6422 78.4815 67.4902 78.0494 67.4902 77.5556C67.4902 77.216 67.5915 76.8611 67.7943 76.4907C69.0107 73.8364 70.2947 71.1821 71.6462 68.5277C72.2206 67.3858 72.8288 66.1975 73.4708 64.9629C74.1128 63.7283 74.7717 62.4938 75.4475 61.2592C76.1571 59.9938 76.8666 58.7592 77.5762 57.5555C78.3195 56.3518 79.046 55.2098 79.7556 54.1296C78.6743 55.1172 77.5255 56.2284 76.3091 57.4629C75.0927 58.6666 73.8763 59.9012 72.6599 61.1666C71.4773 62.4012 70.3453 63.6203 69.2641 64.824C68.1828 66.0277 67.2536 67.108 66.4765 68.0648C64.6519 70.3487 63.1652 72.3704 62.0163 74.1296C60.9013 75.858 59.9552 77.3704 59.1781 78.6667C58.705 79.4383 58.2826 80.0247 57.911 80.4259C57.5055 80.858 56.9311 81.0741 56.1877 81.0741C55.7823 81.0741 55.343 80.9506 54.87 80.7037C54.3631 80.4877 54.1097 80.071 54.1097 79.4537C54.1097 79.0833 54.2955 78.358 54.6672 77.2778C55.0389 76.1667 55.5288 74.8549 56.137 73.3426C56.7115 71.7993 57.3872 70.1172 58.1644 68.2962C58.9077 66.4753 59.6849 64.6389 60.4958 62.787C61.3068 60.9043 62.1008 59.0833 62.878 57.324C63.6551 55.5648 64.3478 53.9907 64.956 52.6018C65.598 51.1821 66.1048 50.0246 66.4765 49.1296C66.882 48.2345 67.1185 47.7253 67.1861 47.6018C67.2536 47.4784 67.4564 47.3858 67.7943 47.324C68.1659 47.2623 68.5883 47.2469 69.0614 47.2777C69.5344 47.3086 70.0243 47.3858 70.5312 47.5092C71.038 47.6327 71.4773 47.8179 71.8489 48.0648C72.8626 48.7438 73.5215 49.3456 73.8256 49.8703C74.0283 50.1481 74.1297 50.3642 74.1297 50.5185C74.1297 50.6419 73.7918 51.1975 73.116 52.1851C72.474 53.1419 71.6462 54.3919 70.6325 55.9351C69.6189 57.4475 68.5038 59.1759 67.2874 61.1203C66.071 63.0648 64.9222 65.0555 63.8409 67.0925C66.071 64.2222 67.9632 61.8456 69.5175 59.9629C71.0718 58.0802 72.3389 56.5679 73.3188 55.4259C74.4676 54.0987 75.3968 53.0648 76.1064 52.324C78.7419 49.2376 80.8368 47.0617 82.3911 45.7963C83.9792 44.5308 85.0267 43.8981 85.5335 43.8981C85.9728 43.8981 86.412 44.0216 86.8513 44.2685C87.3243 44.5154 87.7467 44.8549 88.1184 45.287C88.4901 45.6882 88.7942 46.1666 89.0307 46.7222C89.2672 47.2469 89.3855 47.8179 89.3855 48.4351C89.3855 48.7746 89.3517 49.1296 89.2841 49.5C89.2165 49.8395 89.0814 50.179 88.8786 50.5185C88.2704 51.537 87.5271 52.7716 86.6485 54.2222C85.77 55.6419 84.8408 57.1543 83.861 58.7592C82.9149 60.3642 81.935 62.0154 80.9213 63.7129C79.9076 65.3796 78.9615 66.9537 78.083 68.4351C79.9076 66.0895 81.5802 64.0061 83.1007 62.1851C84.655 60.3642 86.0065 58.821 87.1554 57.5555C88.5069 56.074 89.7065 54.8086 90.7539 53.7592C92.3082 52.216 93.6091 50.9197 94.6565 49.8703C95.7378 48.8209 96.6332 47.9722 97.3428 47.324C98.0524 46.6759 98.6099 46.2129 99.0153 45.9352C99.4546 45.6574 99.8094 45.5185 100.08 45.5185C100.485 45.5185 100.924 45.6728 101.397 45.9814C101.871 46.2592 102.293 46.6142 102.665 47.0463C103.07 47.4784 103.391 47.9722 103.628 48.5277C103.898 49.0524 104.033 49.5617 104.033 50.0555C104.033 50.7037 103.746 51.537 103.171 52.5555C103.532 51.8611 103.628 51.6508 101.397 54.5926C100.553 55.8889 99.3363 58.6821 98.3564 60.1944C97.4103 61.7068 96.5149 63.2962 95.6702 64.9629C94.8255 66.5987 94.1159 68.3117 93.5415 70.1018C93.0009 71.8611 92.7306 73.6203 92.7306 75.3796C92.7306 76.2747 92.8826 77.0463 93.1867 77.6944C93.5246 78.3426 94.0315 78.6667 94.7072 78.6667C95.4168 78.6667 96.2953 78.2191 97.3428 77.3241C98.3902 76.429 99.4884 75.2716 100.637 73.8518C101.82 72.4321 102.986 70.858 104.134 69.1296C105.317 67.3703 106.364 65.6574 107.277 63.9907C107.378 63.8055 107.496 63.6357 107.632 63.4814C107.8 63.3271 107.986 63.25 108.189 63.25C108.392 63.25 108.578 63.3117 108.747 63.4351C108.916 63.5277 109 63.7129 109 63.9907C109 64.1759 108.479 69.5463 108.479 67.0925C103.816 71.5833 107.918 69.3765 106.499 71.537C105.114 73.6666 102.056 75.5339 100.536 77.1389C99.0153 78.7129 97.461 79.963 95.8729 80.8889C94.2849 81.8148 92.7137 82.2778 91.1594 82.2778C90.0781 82.2778 89.1489 82.0772 88.3718 81.6759C87.6284 81.2747 87.0202 80.7346 86.5472 80.0556C86.0741 79.3765 85.7194 78.5895 85.4828 77.6944C85.2463 76.7685 85.128 75.7963 85.128 74.7777Z" fill="#013F7A"/>
<path d="M38.2459 55.0092C36.3199 59.4845 34.4108 64.0216 32.5186 68.6203C30.6264 73.1882 28.7849 77.8796 26.9941 82.6945C29.3593 82.571 31.1333 82.4321 32.3159 82.2778C33.4985 82.1543 33.9885 82.2932 33.7857 82.6945C33.5492 83.2191 33.1944 83.7901 32.7214 84.4074C32.2483 85.0247 31.4881 85.5494 30.4406 85.9815C30.1365 86.1358 29.4607 86.2747 28.4132 86.3982C27.3996 86.5216 26.1832 86.6296 24.764 86.7222C23.3787 86.8457 21.892 86.9537 20.3039 87.0463C18.7496 87.1389 17.2629 87.216 15.8437 87.2778C14.4584 87.3395 13.2589 87.3858 12.2452 87.4167C11.1977 87.4475 10.522 87.4784 10.2179 87.5093C9.23797 87.6019 8.8494 87.4012 9.05213 86.9074C9.25487 86.4136 9.94754 85.7654 11.1302 84.963C11.3329 84.7778 11.7721 84.5154 12.4479 84.1759C13.0899 83.8364 14.1712 83.5278 15.6917 83.25C16.2323 82.0463 17.0263 80.2716 18.0738 77.9259C19.155 75.5494 20.3715 72.8333 21.723 69.7777C23.1084 66.6913 24.612 63.3734 26.2339 59.824C27.8557 56.2438 29.4945 52.6327 31.1502 48.9907C32.8058 45.3487 34.4277 41.7839 36.0158 38.2963C37.6377 34.8086 39.1244 31.6142 40.4759 28.713C41.8613 25.7809 43.0608 23.25 44.0745 21.1204C45.1219 18.9907 45.8991 17.4784 46.4059 16.5833C46.71 16.213 47.352 15.8735 48.3319 15.5648C49.3118 15.2562 50.3592 15.0247 51.4743 14.8704C52.5893 14.6852 53.6199 14.608 54.566 14.6389C55.5459 14.6698 56.1878 14.8241 56.4919 15.1019C56.6609 15.1636 56.644 15.4414 56.4413 15.9352C56.2723 16.429 55.9851 17.0926 55.5796 17.9259C55.1742 18.7284 54.6842 19.6697 54.1098 20.75C53.5692 21.7994 53.0117 22.9414 52.4373 24.1759C50.2072 28.9599 47.9771 33.6821 45.747 38.3426C43.5508 43.003 41.3883 47.7716 39.2595 52.6481C42.875 52.6172 46.1187 52.108 48.9908 51.1203C51.8966 50.1327 54.4477 48.8055 56.644 47.1389C58.8741 45.4722 60.7831 43.5586 62.3712 41.3981C63.9931 39.2376 65.3109 36.9845 66.3245 34.6389C67.3382 32.2623 68.0816 29.8858 68.5546 27.5093C69.0277 25.1018 69.2642 22.8488 69.2642 20.75C69.2642 19.1759 68.9601 17.7407 68.3519 16.4444C67.7775 15.1173 66.9496 13.9907 65.8684 13.0648C64.7872 12.108 63.4863 11.3673 61.9658 10.8426C60.479 10.3179 58.8234 10.0556 56.9988 10.0556C52.9441 10.0556 49.1259 10.7037 45.5443 12C41.9965 13.2963 38.9048 15.1173 36.2692 17.463C33.6337 19.7778 31.5556 22.571 30.0351 25.8426C28.5146 29.1142 27.7544 32.7253 27.7544 36.6759C27.7544 37.2006 27.6192 37.6635 27.3489 38.0648C27.0786 38.466 26.6224 38.6666 25.9804 38.6666C25.5412 38.6666 24.9668 38.5123 24.2572 38.2037C23.5476 37.8641 22.8381 37.4321 22.1285 36.9074C21.4527 36.3518 20.8614 35.7191 20.3546 35.0092C19.8815 34.2685 19.645 33.4969 19.645 32.6944C19.645 30.5031 20.2025 28.358 21.3176 26.2593C22.4664 24.1296 24.0038 22.108 25.9298 20.1944C27.8895 18.2809 30.1703 16.5216 32.772 14.9167C35.3738 13.3117 38.1276 11.9228 41.0335 10.75C43.9731 9.57716 46.9803 8.66667 50.0551 8.01852C53.1637 7.33951 56.1709 7 59.0768 7C62.3881 7 65.3278 7.41666 67.8957 8.25C70.4975 9.05247 72.6769 10.1944 74.434 11.6759C76.2248 13.1574 77.5763 14.9321 78.4886 17C79.4009 19.037 79.8571 21.2747 79.8571 23.713C79.8571 26.9228 79.1137 30.0401 77.627 33.0648C76.1403 36.0895 74.1129 38.8981 71.5449 41.4907C69.0108 44.0833 66.0373 46.3827 62.6246 48.3888C59.212 50.395 55.5796 51.9691 51.7277 53.1111C51.998 56.7839 52.4035 60.3333 52.9441 63.7592C53.4847 67.1851 54.1436 70.4105 54.9208 73.4352C55.6979 76.429 56.5764 79.1759 57.5563 81.6759C58.57 84.1759 59.6681 86.321 60.8507 88.1111C62.0671 89.9013 63.368 91.2901 64.7534 92.2778C66.1387 93.2654 67.6086 93.7593 69.1629 93.7593C70.8185 93.7593 72.2545 93.358 73.4709 92.5556C74.6874 91.7531 75.7348 90.8735 76.6133 89.9167C77.5256 88.9599 78.3028 88.0802 78.9448 87.2778C79.6206 86.4753 80.2288 86.0741 80.7694 86.0741C81.2424 86.0741 81.5296 86.213 81.631 86.4907C81.7662 86.7685 81.8337 87.0463 81.8337 87.3241C81.8337 88.3117 81.5803 89.3766 81.0735 90.5185C80.5667 91.6605 79.7726 92.7099 78.6914 93.6667C77.6101 94.6235 76.2079 95.4105 74.4846 96.0278C72.7952 96.6759 70.7509 97 68.3519 97C65.0068 97 62.0671 96.3982 59.533 95.1945C57.0326 93.9908 54.8363 92.3549 52.9441 90.287C51.0857 88.25 49.4976 85.8426 48.1798 83.0648C46.8959 80.3179 45.8315 77.3858 44.9868 74.2685C44.1421 71.1512 43.4832 67.9413 43.0101 64.6388C42.5371 61.3364 42.1823 58.0956 41.9458 54.9166C41.4389 54.9783 40.9152 55.0092 40.3746 55.0092C39.8677 55.0092 39.3609 55.0092 38.8541 55.0092H38.2459Z" stroke="#0174DF" stroke-width="2" mask="url(#path-1-outside-1_262_1113)"/>
<path d="M85.128 74.7777C85.128 73.358 85.3983 71.8148 85.939 70.1481C86.5134 68.4506 87.2737 66.7222 88.2197 64.9629C89.1658 63.1728 90.2471 61.3672 91.4635 59.5463C92.6799 57.6944 93.9301 55.8888 95.2141 54.1296C95.1465 54.1913 95.0789 54.253 95.0113 54.3148C94.9776 54.3456 94.9438 54.3919 94.91 54.4537C94.8424 54.5154 94.8086 54.5617 94.8086 54.5926C94.268 55.1481 93.5922 55.8426 92.7813 56.6759C91.9703 57.5092 91.0749 58.4506 90.095 59.5C89.1489 60.5185 88.1522 61.6142 87.1047 62.787C86.0573 63.9598 84.9929 65.1481 83.9116 66.3518C82.8642 67.5246 81.8505 68.6975 80.8706 69.8703C79.8907 71.0123 78.9953 72.0771 78.1844 73.0648C76.8666 74.7006 75.8023 76.0123 74.9913 77C74.2142 77.9876 73.5891 78.7438 73.116 79.2685C72.643 79.7932 72.2882 80.1327 72.0517 80.287C71.8152 80.4722 71.5786 80.5648 71.3421 80.5648C71.0718 80.5648 70.717 80.5031 70.2778 80.3796C69.8385 80.2562 69.4161 80.071 69.0107 79.8241C68.6052 79.5463 68.2504 79.2222 67.9463 78.8518C67.6422 78.4815 67.4902 78.0494 67.4902 77.5556C67.4902 77.216 67.5915 76.8611 67.7943 76.4907C69.0107 73.8364 70.2947 71.1821 71.6462 68.5277C72.2206 67.3858 72.8288 66.1975 73.4708 64.9629C74.1128 63.7283 74.7717 62.4938 75.4475 61.2592C76.1571 59.9938 76.8666 58.7592 77.5762 57.5555C78.3195 56.3518 79.046 55.2098 79.7556 54.1296C78.6743 55.1172 77.5255 56.2284 76.3091 57.4629C75.0927 58.6666 73.8763 59.9012 72.6599 61.1666C71.4773 62.4012 70.3453 63.6203 69.2641 64.824C68.1828 66.0277 67.2536 67.108 66.4765 68.0648C64.6519 70.3487 63.1652 72.3704 62.0163 74.1296C60.9013 75.858 59.9552 77.3704 59.1781 78.6667C58.705 79.4383 58.2826 80.0247 57.911 80.4259C57.5055 80.858 56.9311 81.0741 56.1877 81.0741C55.7823 81.0741 55.343 80.9506 54.87 80.7037C54.3631 80.4877 54.1097 80.071 54.1097 79.4537C54.1097 79.0833 54.2955 78.358 54.6672 77.2778C55.0389 76.1667 55.5288 74.8549 56.137 73.3426C56.7115 71.7993 57.3872 70.1172 58.1644 68.2962C58.9077 66.4753 59.6849 64.6389 60.4958 62.787C61.3068 60.9043 62.1008 59.0833 62.878 57.324C63.6551 55.5648 64.3478 53.9907 64.956 52.6018C65.598 51.1821 66.1048 50.0246 66.4765 49.1296C66.882 48.2345 67.1185 47.7253 67.1861 47.6018C67.2536 47.4784 67.4564 47.3858 67.7943 47.324C68.1659 47.2623 68.5883 47.2469 69.0614 47.2777C69.5344 47.3086 70.0243 47.3858 70.5312 47.5092C71.038 47.6327 71.4773 47.8179 71.8489 48.0648C72.8626 48.7438 73.5215 49.3456 73.8256 49.8703C74.0283 50.1481 74.1297 50.3642 74.1297 50.5185C74.1297 50.6419 73.7918 51.1975 73.116 52.1851C72.474 53.1419 71.6462 54.3919 70.6325 55.9351C69.6189 57.4475 68.5038 59.1759 67.2874 61.1203C66.071 63.0648 64.9222 65.0555 63.8409 67.0925C66.071 64.2222 67.9632 61.8456 69.5175 59.9629C71.0718 58.0802 72.3389 56.5679 73.3188 55.4259C74.4676 54.0987 75.3968 53.0648 76.1064 52.324C78.7419 49.2376 80.8368 47.0617 82.3911 45.7963C83.9792 44.5308 85.0267 43.8981 85.5335 43.8981C85.9728 43.8981 86.412 44.0216 86.8513 44.2685C87.3243 44.5154 87.7467 44.8549 88.1184 45.287C88.4901 45.6882 88.7942 46.1666 89.0307 46.7222C89.2672 47.2469 89.3855 47.8179 89.3855 48.4351C89.3855 48.7746 89.3517 49.1296 89.2841 49.5C89.2165 49.8395 89.0814 50.179 88.8786 50.5185C88.2704 51.537 87.5271 52.7716 86.6485 54.2222C85.77 55.6419 84.8408 57.1543 83.861 58.7592C82.9149 60.3642 81.935 62.0154 80.9213 63.7129C79.9076 65.3796 78.9615 66.9537 78.083 68.4351C79.9076 66.0895 81.5802 64.0061 83.1007 62.1851C84.655 60.3642 86.0065 58.821 87.1554 57.5555C88.5069 56.074 89.7065 54.8086 90.7539 53.7592C92.3082 52.216 93.6091 50.9197 94.6565 49.8703C95.7378 48.8209 96.6332 47.9722 97.3428 47.324C98.0524 46.6759 98.6099 46.2129 99.0153 45.9352C99.4546 45.6574 99.8094 45.5185 100.08 45.5185C100.485 45.5185 100.924 45.6728 101.397 45.9814C101.871 46.2592 102.293 46.6142 102.665 47.0463C103.07 47.4784 103.391 47.9722 103.628 48.5277C103.898 49.0524 104.033 49.5617 104.033 50.0555C104.033 50.7037 103.746 51.537 103.171 52.5555C103.532 51.8611 103.628 51.6508 101.397 54.5926C100.553 55.8889 99.3363 58.6821 98.3564 60.1944C97.4103 61.7068 96.5149 63.2962 95.6702 64.9629C94.8255 66.5987 94.1159 68.3117 93.5415 70.1018C93.0009 71.8611 92.7306 73.6203 92.7306 75.3796C92.7306 76.2747 92.8826 77.0463 93.1867 77.6944C93.5246 78.3426 94.0315 78.6667 94.7072 78.6667C95.4168 78.6667 96.2953 78.2191 97.3428 77.3241C98.3902 76.429 99.4884 75.2716 100.637 73.8518C101.82 72.4321 102.986 70.858 104.134 69.1296C105.317 67.3703 106.364 65.6574 107.277 63.9907C107.378 63.8055 107.496 63.6357 107.632 63.4814C107.8 63.3271 107.986 63.25 108.189 63.25C108.392 63.25 108.578 63.3117 108.747 63.4351C108.916 63.5277 109 63.7129 109 63.9907C109 64.1759 108.479 69.5463 108.479 67.0925C103.816 71.5833 107.918 69.3765 106.499 71.537C105.114 73.6666 102.056 75.5339 100.536 77.1389C99.0153 78.7129 97.461 79.963 95.8729 80.8889C94.2849 81.8148 92.7137 82.2778 91.1594 82.2778C90.0781 82.2778 89.1489 82.0772 88.3718 81.6759C87.6284 81.2747 87.0202 80.7346 86.5472 80.0556C86.0741 79.3765 85.7194 78.5895 85.4828 77.6944C85.2463 76.7685 85.128 75.7963 85.128 74.7777Z" stroke="#0174DF" stroke-width="2" mask="url(#path-1-outside-1_262_1113)"/>
</g>
<defs>
<filter id="filter0_d_262_1113" x="-0.00012207" y="0" width="122" height="112" filterUnits="userSpaceOnUse" color-interpolation-filters="sRGB">
<feFlood flood-opacity="0" result="BackgroundImageFix"/>
<feColorMatrix in="SourceAlpha" type="matrix" values="0 0 0 0 0 0 0 0 0 0 0 0 0 0 0 0 0 0 127 0" result="hardAlpha"/>
<feOffset dx="2" dy="4"/>
<feGaussianBlur stdDeviation="5"/>
<feComposite in2="hardAlpha" operator="out"/>
<feColorMatrix type="matrix" values="0 0 0 0 0 0 0 0 0 0 0 0 0 0 0 0 0 0 0.25 0"/>
<feBlend mode="normal" in2="BackgroundImageFix" result="effect1_dropShadow_262_1113"/>
<feBlend mode="normal" in="SourceGraphic" in2="effect1_dropShadow_262_1113" result="shape"/>
</filter>
</defs>
</svg>
